# xmcd
# 
# Track frame offsets:
#     150
#     30857
#     45775
#     62288
#     95588
#     109711
#     143059
#     159334
# 
# Disc length: 2367
# 
# Revision: 1
# Processed by: cddbd v1.5.2PL0 Copyright (c) Steve Scherf et al.
# Submitted via: fre:ac v1.0.31
# 
DISCID=4f093d08
DTITLE=Roy Buchanan - Telemaster Live in '75
DYEAR=1975
DGENRE=Blues
TTITLE0=Can I Change My Mind
TTITLE1=Running Out
TTITLE2=Further On Up the Road
TTITLE3=I Used to Have a Woman
TTITLE4=Sweet Home Chicago
TTITLE5=The Messiah Will Come Again
TTITLE6=Whole Lotta Shakin Goin On
TTITLE7=Sweet Dreams
EXTD=
EXTT0=
EXTT1=
EXTT2=
EXTT3=
EXTT4=
EXTT5=
EXTT6=
EXTT7=
PLAYORDER=
